<?xml version="1.0" encoding="UTF-8"?>
<svg version="1.1" xmlns="http://www.w3.org/2000/svg" width="40" height="40">
<path d="M0 0 C1.32 0 2.64 0 4 0 C4 1.32 4 2.64 4 4 C2.68 4 1.36 4 0 4 C0 2.68 0 1.36 0 0 Z M1 1 C1 1.66 1 2.32 1 3 C1.66 3 2.32 3 3 3 C3 2.34 3 1.68 3 1 C2.34 1 1.68 1 1 1 Z " fill="#FFFFFF" transform="translate(24,24)"/>
<path d="M0 0 C1.32 0 2.64 0 4 0 C4 1.32 4 2.64 4 4 C2.68 4 1.36 4 0 4 C0 2.68 0 1.36 0 0 Z M1 1 C1 1.66 1 2.32 1 3 C1.66 3 2.32 3 3 3 C3 2.34 3 1.68 3 1 C2.34 1 1.68 1 1 1 Z " fill="#FFFFFF" transform="translate(18,24)"/>
<path d="M0 0 C1.32 0 2.64 0 4 0 C4 1.32 4 2.64 4 4 C2.68 4 1.36 4 0 4 C0 2.68 0 1.36 0 0 Z M1 1 C1 1.66 1 2.32 1 3 C1.66 3 2.32 3 3 3 C3 2.34 3 1.68 3 1 C2.34 1 1.68 1 1 1 Z " fill="#FFFFFF" transform="translate(12,24)"/>
<path d="M0 0 C1.32 0 2.64 0 4 0 C4 1.32 4 2.64 4 4 C2.68 4 1.36 4 0 4 C0 2.68 0 1.36 0 0 Z M1 1 C1 1.66 1 2.32 1 3 C1.66 3 2.32 3 3 3 C3 2.34 3 1.68 3 1 C2.34 1 1.68 1 1 1 Z " fill="#FFFFFF" transform="translate(24,18)"/>
<path d="M0 0 C1.32 0 2.64 0 4 0 C4 1.32 4 2.64 4 4 C2.68 4 1.36 4 0 4 C0 2.68 0 1.36 0 0 Z M1 1 C1 1.66 1 2.32 1 3 C1.66 3 2.32 3 3 3 C3 2.34 3 1.68 3 1 C2.34 1 1.68 1 1 1 Z " fill="#FFFFFF" transform="translate(18,18)"/>
<path d="M0 0 C1.32 0 2.64 0 4 0 C4 1.32 4 2.64 4 4 C2.68 4 1.36 4 0 4 C0 2.68 0 1.36 0 0 Z M1 1 C1 1.66 1 2.32 1 3 C1.66 3 2.32 3 3 3 C3 2.34 3 1.68 3 1 C2.34 1 1.68 1 1 1 Z " fill="#FFFFFF" transform="translate(12,18)"/>
<path d="M0 0 C1.32 0 2.64 0 4 0 C4 1.32 4 2.64 4 4 C2.68 4 1.36 4 0 4 C0 2.68 0 1.36 0 0 Z M1 1 C1 1.66 1 2.32 1 3 C1.66 3 2.32 3 3 3 C3 2.34 3 1.68 3 1 C2.34 1 1.68 1 1 1 Z " fill="#FFFFFF" transform="translate(24,12)"/>
<path d="M0 0 C1.32 0 2.64 0 4 0 C4 1.32 4 2.64 4 4 C2.68 4 1.36 4 0 4 C0 2.68 0 1.36 0 0 Z M1 1 C1 1.66 1 2.32 1 3 C1.66 3 2.32 3 3 3 C3 2.34 3 1.68 3 1 C2.34 1 1.68 1 1 1 Z " fill="#FFFFFF" transform="translate(18,12)"/>
<path d="M0 0 C1.32 0 2.64 0 4 0 C4 1.32 4 2.64 4 4 C2.68 4 1.36 4 0 4 C0 2.68 0 1.36 0 0 Z M1 1 C1 1.66 1 2.32 1 3 C1.66 3 2.32 3 3 3 C3 2.34 3 1.68 3 1 C2.34 1 1.68 1 1 1 Z " fill="#FFFFFF" transform="translate(12,12)"/>
</svg>
