<?xml version="1.0" encoding="UTF-8"?>
<svg version="1.1" xmlns="http://www.w3.org/2000/svg" width="512" height="512">
<path d="M0 0 C168.96 0 337.92 0 512 0 C512 168.96 512 337.92 512 512 C343.04 512 174.08 512 0 512 C0 343.04 0 174.08 0 0 Z M189.94189453 163.44287109 C189.0982988 164.28091782 188.25470306 165.11896454 187.38554382 165.98240662 C185.09763736 168.26059698 182.82116555 170.54946421 180.54995584 172.84427977 C178.15904284 175.25546268 175.75498131 177.65347564 173.35275269 180.05337524 C169.32480514 184.08137617 165.30677158 188.119055 161.29492188 192.16308594 C156.66817681 196.82676538 152.02748475 201.4761896 147.37875855 206.11795175 C142.88864955 210.60173997 138.4071513 215.09403421 133.92995834 219.59071732 C132.03225272 221.49655989 130.13188227 223.39968384 128.2293129 225.30067062 C125.57258801 227.95919683 122.92588531 230.62731104 120.28173828 233.29833984 C119.49831558 234.07883194 118.71489288 234.85932404 117.9077301 235.66346741 C111.72923021 241.93894805 107.42346368 247.46942104 106.91796875 256.52734375 C107.42121481 271.69661794 127.14461027 285.36072879 137.02734375 295.30078125 C137.88921358 296.16797476 138.75108341 297.03516827 139.63907051 297.92864037 C144.19262224 302.5087638 148.74973616 307.08531207 153.30932617 311.65942383 C157.06670823 315.43018694 160.81663494 319.20806738 164.56030273 322.99243164 C169.10477165 327.5862743 173.66144542 332.16766752 178.22711372 336.74043846 C179.95642887 338.47644704 181.68150232 340.21669225 183.40211296 341.96132851 C185.81100446 344.40195637 188.23532262 346.82621358 190.66381836 349.24731445 C191.36178528 349.96168671 192.0597522 350.67605896 192.77886963 351.41207886 C198.5806569 357.14224715 205.2496912 362.00305287 213.625 362.5625 C220.17473804 362.12354048 225.01932366 359.39276577 229.375 354.5625 C233.0945179 349.78170661 234.5983238 345.63658997 234.342453 339.55245972 C232.95897826 329.24078623 224.86075835 322.19457259 217.79296875 315.3046875 C216.70042696 314.22149198 215.60899922 313.13717176 214.51863098 312.05178833 C211.67077093 309.22285522 208.80821583 306.40927515 205.94213867 303.59881592 C203.01019216 300.71837327 200.09266534 297.82340274 197.17382812 294.9296875 C191.46309198 289.27228595 185.73672074 283.63105049 180 278 C181.05944824 277.99761165 182.11889648 277.99522329 183.21044922 277.99276257 C208.99164768 277.93396256 234.77275272 277.85807656 260.55384827 277.76428509 C273.02140457 277.71932357 285.48893228 277.67990965 297.95654297 277.65356445 C308.82357281 277.63058734 319.69051221 277.59719238 330.55747032 277.55129844 C336.31119503 277.52736251 342.06483015 277.50863609 347.81860352 277.50238609 C353.23585364 277.49633701 358.6528745 277.47634317 364.07003975 277.44572449 C366.05655894 277.4369415 368.0431081 277.43322222 370.02964592 277.43499184 C372.74650906 277.43664767 375.46267589 277.41991886 378.17944336 277.39872742 C378.96156693 277.40357499 379.74369049 277.40842257 380.54951477 277.41341704 C387.95582976 277.31838454 394.62662094 275.37337906 400 270 C403.88288308 264.60710683 405.2718631 259.67110213 405 253 C403.79609901 247.33574452 401.18476329 242.20254658 396.328125 238.84375 C390.32185057 235.25025248 385.52595683 234.85024143 378.66046143 234.84178162 C377.81174839 234.83684364 376.96303535 234.83190566 376.08860373 234.82681805 C373.24038624 234.8114413 370.39219129 234.80308192 367.54394531 234.79467773 C365.50397035 234.78509935 363.46399738 234.7750893 361.42402649 234.76467896 C355.8810644 234.73761952 350.33809378 234.71661555 344.79510212 234.69667697 C339.00415299 234.67482385 333.21323016 234.64743186 327.42230225 234.62062073 C316.45412477 234.57068474 305.4859327 234.52574925 294.51772666 234.48259836 C282.03175976 234.43323375 269.54581925 234.37831274 257.05987787 234.32291877 C231.37327653 234.2090848 205.68664988 234.10224882 180 234 C180.60277267 233.40833038 181.20554535 232.81666077 181.82658386 232.20706177 C187.53287622 226.60137364 193.22674967 220.98341905 198.90735912 215.35170174 C201.82755353 212.45748919 204.75216456 209.56806604 207.68774414 206.68945312 C210.52591249 203.90601351 213.35132839 201.11017773 216.16869545 198.30569077 C217.24028144 197.24327178 218.31622479 196.18522742 219.3967495 195.13190079 C226.61491122 188.08812562 233.7950639 180.94252592 234.5625 170.375 C234.12354048 163.82526196 231.39276577 158.98067634 226.5625 154.625 C221.78038939 150.90445729 217.64484094 149.41898431 211.56276131 149.6467495 C202.58580698 150.88413108 196.02792622 157.25218116 189.94189453 163.44287109 Z " fill="#000000" transform="translate(0,0)"/>
</svg>
