<?xml version="1.0" encoding="UTF-8"?>
<svg version="1.1" xmlns="http://www.w3.org/2000/svg" width="512" height="512">
<path d="M0 0 C2.46340744 2.09716633 3.80586663 3.97091542 5.20703125 6.87890625 C5.08236224 9.99563138 4.72964817 12.03691233 3.08203125 14.69140625 C0.05622681 16.60774906 -2.27398962 17.41695754 -5.79296875 16.87890625 C-8.97207076 15.2958256 -11.93320022 13.47928224 -14.94921875 11.60546875 C-22.46390956 7.0429779 -31.21556396 6.62530383 -39.6953125 8.53125 C-49.66472672 11.78913711 -56.37353016 17.19794139 -61.6015625 26.25390625 C-64.78020768 33.25734744 -65.18034525 39.70750385 -65.41796875 47.31640625 C-65.47597656 48.84297852 -65.47597656 48.84297852 -65.53515625 50.40039062 C-65.62877747 52.89305561 -65.71450868 55.38572575 -65.79296875 57.87890625 C-65.01953125 57.67394531 -64.24609375 57.46898438 -63.44921875 57.2578125 C-62.40765625 56.98839844 -61.36609375 56.71898438 -60.29296875 56.44140625 C-59.27203125 56.17457031 -58.25109375 55.90773438 -57.19921875 55.6328125 C-40.04013745 51.83498831 -12.02848426 49.76114849 4.20703125 57.87890625 C4.06652236 54.06619085 3.91864391 50.25379409 3.76953125 46.44140625 C3.73021484 45.37212891 3.69089844 44.30285156 3.65039062 43.20117188 C3.45768331 38.35384163 3.20827478 33.59241879 2.54296875 28.78515625 C2.20703125 24.87890625 2.20703125 24.87890625 4.26953125 21.81640625 C7.20703125 19.87890625 7.20703125 19.87890625 10.20703125 19.25390625 C14.30138228 20.10689605 15.67901996 21.57844706 18.20703125 24.87890625 C21.53518932 33.53211724 21.39975918 43.28197032 21.76953125 52.44140625 C21.81271484 53.45009766 21.85589844 54.45878906 21.90039062 55.49804688 C22.00532743 57.958232 22.10748826 60.418498 22.20703125 62.87890625 C23.15320313 63.25660156 24.099375 63.63429688 25.07421875 64.0234375 C41.49536632 70.77605893 56.23571382 79.72670496 69.20703125 91.87890625 C69.77905273 92.4085498 70.35107422 92.93819336 70.94042969 93.48388672 C100.23393795 120.85166244 116.47713685 157.95341361 118.20703125 197.87890625 C118.3659388 204.19595486 118.3640684 210.51538386 118.37569618 216.83408737 C118.38297714 219.97332808 118.39872491 223.11242259 118.41703796 226.25161743 C118.46898192 235.16707411 118.51744487 244.08244192 118.53295898 252.99804688 C118.54311618 258.48032849 118.5726207 263.9622261 118.61427879 269.44435501 C118.62646905 271.5132518 118.63173234 273.58220302 118.62948036 275.65113449 C118.61678428 291.11337843 119.85388071 305.45753759 126.83203125 319.56640625 C127.17121582 320.26572266 127.51040039 320.96503906 127.85986328 321.68554688 C134.69275467 335.22176693 144.73326052 345.78843453 157.45703125 354.00390625 C164.21342302 358.38385213 170.40534834 363.63620692 172.20703125 371.87890625 C173.07501013 381.29406608 172.40922949 388.94002076 166.64453125 396.56640625 C161.49974839 401.97646721 155.10456357 405.07540952 147.63864136 405.48017883 C145.5974924 405.49447457 143.55603052 405.48183098 141.51513672 405.4465332 C140.39201584 405.44726334 139.26889496 405.44799347 138.11174011 405.44874573 C134.43205983 405.44528686 130.75367549 405.40650377 127.07421875 405.3671875 C124.51018973 405.35785339 121.94615175 405.35074011 119.3821106 405.3457489 C113.34376525 405.3286664 107.30596862 405.28933766 101.26784241 405.23900145 C94.38751628 405.18290277 87.50716699 405.15557026 80.62666869 405.13052428 C66.48653675 405.07841446 52.34680921 404.99060131 38.20703125 404.87890625 C38.36856689 405.4630127 38.53010254 406.04711914 38.6965332 406.64892578 C39.4627266 409.99584614 39.39139813 413.33880226 39.39453125 416.75390625 C39.40677734 417.44871094 39.41902344 418.14351563 39.43164062 418.859375 C39.44631877 424.05543671 39.11799531 428.83144475 35.45703125 432.75390625 C32.44262379 434.26110998 30.53691507 434.36451431 27.20703125 433.87890625 C24.89453125 432.31640625 24.89453125 432.31640625 23.20703125 429.87890625 C22.20703125 422.87890625 22.20703125 422.87890625 22.20703125 404.87890625 C-12.77296875 404.87890625 -47.75296875 404.87890625 -83.79296875 404.87890625 C-83.79296875 425.4561502 -81.81129574 440.16109992 -67.578125 455.22265625 C-57.34021965 465.17847993 -45.06945945 469.80603998 -30.98046875 470.19140625 C-15.86818845 469.93113016 -2.64164131 464.43530079 8.20703125 453.87890625 C10.78684508 450.82011059 13.09869057 447.59598519 15.39453125 444.3203125 C17.20703125 441.87890625 17.20703125 441.87890625 19.20703125 440.87890625 C23.00580724 440.52716773 25.35063278 440.35189181 28.64453125 442.37890625 C30.79522488 445.82001605 30.81813379 448.96566584 30.20703125 452.87890625 C28.79745193 455.39790394 27.59505802 457.22663279 25.76953125 459.37890625 C25.31288086 459.93860107 24.85623047 460.4982959 24.38574219 461.07495117 C12.47247163 475.36798628 -3.25582801 484.39502139 -21.79296875 486.87890625 C-43.05153875 488.15777486 -61.91248138 483.56973052 -78.3359375 469.23828125 C-92.84263592 455.30816067 -99.58392985 437.64198409 -100.77734375 417.87109375 C-100.7891708 414.84928325 -100.64532479 412.11064052 -100.29394531 409.12939453 C-100.20099182 408.33010529 -100.10803833 407.53081604 -100.01226807 406.70730591 C-99.9037149 405.80224808 -99.9037149 405.80224808 -99.79296875 404.87890625 C-100.37827362 404.88259342 -100.96357849 404.88628059 -101.56661987 404.8900795 C-115.83131215 404.97855105 -130.09597987 405.04467433 -144.36088562 405.08615494 C-151.25940832 405.10674969 -158.15774748 405.13481069 -165.05615234 405.18066406 C-171.71513386 405.22490476 -178.37388545 405.24805306 -185.03302002 405.25841522 C-187.57190957 405.26579854 -190.11078885 405.2802164 -192.64959717 405.30182648 C-196.2093346 405.33091797 -199.76828757 405.33485967 -203.328125 405.33300781 C-204.37469772 405.34738892 -205.42127045 405.36177002 -206.4995575 405.37658691 C-212.90503883 405.34059606 -217.37373779 404.3264066 -222.79296875 400.87890625 C-223.67984375 400.32203125 -224.56671875 399.76515625 -225.48046875 399.19140625 C-231.00403486 393.66784014 -233.89472795 386.88684155 -234.04296875 379.12890625 C-233.91980671 370.7292548 -230.72840497 363.83766442 -224.79296875 357.87890625 C-221.89204574 355.7733301 -218.9080444 353.85568175 -215.8828125 351.93359375 C-197.66251162 339.81743918 -185.9555219 320.40959762 -181.20762634 299.27310181 C-179.44848327 289.27136846 -179.49718656 279.32348602 -179.4880085 269.19517136 C-179.48429701 265.8955107 -179.46744012 262.59613805 -179.44725037 259.29653931 C-179.39230384 249.92349654 -179.36129097 240.55041249 -179.33666992 231.17724609 C-179.32063922 225.41737212 -179.29026294 219.65770395 -179.25190544 213.89793777 C-179.24039288 211.72545204 -179.23432632 209.55292929 -179.23422432 207.38041306 C-179.2321146 174.39956061 -172.36192685 138.07612011 -149.68359375 112.5 C-147.06375766 110.25365294 -145.21898174 109.94882488 -141.79296875 109.87890625 C-138.20870596 111.26373505 -137.07977985 112.30528406 -135.35546875 115.75390625 C-134.30806308 121.57282666 -137.73965097 125.45556094 -140.91796875 130.12890625 C-156.83709085 154.31795409 -162.24699496 180.50249 -162.20365906 209.12185669 C-162.19909573 212.40491395 -162.21341595 215.68745582 -162.23205566 218.97045898 C-162.26845577 225.93993367 -162.28248441 232.90935061 -162.29296875 239.87890625 C-162.30513904 247.96921014 -162.3270374 256.05925589 -162.37297058 264.14944458 C-162.38633558 267.34965783 -162.38240931 270.54952672 -162.37756348 273.74975586 C-162.4188688 289.03372772 -163.30713118 304.30984917 -168.98046875 318.69140625 C-169.43111694 319.86884399 -169.43111694 319.86884399 -169.89086914 321.07006836 C-177.64413434 340.57191396 -191.97446316 357.60473318 -209.84204102 368.53125 C-214.41771369 371.30361144 -214.41771369 371.30361144 -216.79296875 375.87890625 C-217.00648104 377.88080225 -217.00648104 377.88080225 -216.73046875 379.87890625 C-216.67761719 380.53890625 -216.62476563 381.19890625 -216.5703125 381.87890625 C-215.38273929 384.93437099 -213.48557484 386.07236758 -210.79296875 387.87890625 C-207.81355358 388.47304742 -207.81355358 388.47304742 -204.55103207 388.38227081 C-202.65354069 388.3979173 -202.65354069 388.3979173 -200.71771616 388.41387987 C-199.31636068 388.4052319 -197.91500749 388.39620528 -196.51365662 388.38684082 C-195.02313298 388.3914495 -193.53261388 388.3978022 -192.0421043 388.4057498 C-187.94503188 388.42247081 -183.84833143 388.41418433 -179.75125754 388.40180492 C-175.33334223 388.39276812 -170.91549164 388.40671729 -166.49758911 388.41772461 C-157.84272892 388.43552864 -149.18800733 388.4316616 -140.53314167 388.42007405 C-133.50096024 388.41104799 -126.46881771 388.40981213 -119.43663216 388.41416931 C-117.93652256 388.41508871 -117.93652256 388.41508871 -116.40610771 388.41602668 C-114.3746213 388.41730555 -112.34313489 388.41860241 -110.3116485 388.41991705 C-91.25435403 388.43132821 -72.19713647 388.41820042 -53.13985462 388.39671558 C-36.77850063 388.37884138 -20.41726014 388.38195033 -4.0559082 388.40039062 C14.93379093 388.42178314 33.92342263 388.43023242 52.91313213 388.41794157 C54.93692488 388.41666734 56.96071765 388.41540986 58.98451042 388.41416931 C60.47821945 388.41324366 60.47821945 388.41324366 62.00210442 388.41229931 C69.0284891 388.40884175 76.05483111 388.41468342 83.08120918 388.42408752 C91.64015613 388.4352908 100.19895629 388.43230264 108.75788636 388.41096455 C113.12699875 388.40043196 117.49586615 388.39636975 121.86497688 388.40956116 C125.86145539 388.42144529 129.8574609 388.41498893 133.85389625 388.39365095 C135.3026596 388.38916793 136.75146258 388.39148912 138.20020062 388.4011541 C140.1637518 388.4132528 142.12741429 388.39849522 144.09093571 388.38227081 C145.72954031 388.3812967 145.72954031 388.3812967 147.40124804 388.38030291 C150.87654964 387.75926255 152.02743861 386.59462115 154.20703125 383.87890625 C155.77638719 380.74019437 155.55904228 378.34034803 155.20703125 374.87890625 C151.78298796 370.27415837 146.7466107 367.36552303 142.1171875 364.05078125 C120.87893425 348.20048755 107.96445844 326.14265355 102.67027283 300.25416565 C102.09391875 296.0547487 102.04657025 291.95214744 102.03344727 287.71850586 C102.02676025 286.81501907 102.02007324 285.91153229 102.01318359 284.98066711 C101.9991689 283.02298751 101.98726356 281.0652919 101.97723579 279.10758781 C101.96071167 275.9886241 101.93746156 272.86977539 101.91233826 269.75086975 C101.84193557 260.88369598 101.78200305 252.01647151 101.73022461 243.14916992 C101.69802075 237.71509223 101.65663527 232.28114216 101.61002922 226.84716988 C101.59423606 224.79635532 101.58181312 222.74551142 101.57312202 220.69465446 C101.38127536 176.01244417 92.15244889 138.16320666 59.61474609 105.86206055 C53.63965134 100.13003427 47.16170446 95.3487391 40.20703125 90.87890625 C39.21058594 90.23308594 38.21414063 89.58726563 37.1875 88.921875 C26.98339672 82.65188383 15.99183424 78.59160211 4.58203125 75.12890625 C3.93854736 74.93022949 3.29506348 74.73155273 2.63208008 74.52685547 C-30.10236255 65.03000163 -65.82915502 71.22175634 -95.36474609 87.16601562 C-100.48090844 90.01940752 -105.38017937 93.09255215 -110.078125 96.6015625 C-113.37921315 99.0604596 -115.6943374 99.28876938 -119.79296875 98.87890625 C-122.7372461 96.8099546 -123.6362983 95.36980698 -124.73046875 91.94140625 C-124.80839231 88.12315198 -124.04897923 86.94194487 -121.79296875 83.87890625 C-119.58468169 82.1231605 -117.46544358 80.58310036 -115.10546875 79.06640625 C-114.12102783 78.42336548 -114.12102783 78.42336548 -113.11669922 77.76733398 C-108.35238285 74.72180426 -103.46585279 71.98675549 -98.41796875 69.44140625 C-97.78930908 69.12389404 -97.16064941 68.80638184 -96.51293945 68.47924805 C-91.74498214 66.15975176 -86.85015767 64.45791657 -81.79296875 62.87890625 C-81.81653442 61.5942749 -81.81653442 61.5942749 -81.84057617 60.28369141 C-81.89217305 57.05943095 -81.92954421 53.83538325 -81.95776367 50.61083984 C-81.97270822 49.22404998 -81.99307153 47.83730618 -82.01928711 46.45068359 C-82.1723476 38.13739811 -81.89006319 30.69323204 -78.79296875 22.87890625 C-78.45136719 21.96238281 -78.10976562 21.04585937 -77.7578125 20.1015625 C-71.1208297 6.14623364 -60.1518392 -1.86150318 -46.1171875 -7.359375 C-30.41799551 -12.50448834 -13.54282666 -8.7510619 0 0 Z " fill="#000000" transform="translate(289.79296875,17.12109375)"/>
<path d="M0 0 C4.53876275 0.79627417 5.6343871 2.10941421 8.5625 5.625 C9.89975825 8.24944531 10.81046553 10.94208986 11.6875 13.75 C11.93902832 14.53914795 12.19055664 15.3282959 12.44970703 16.14135742 C22.05257651 47.64785564 18.88727092 81.24485565 3.8125 110.4375 C-1.96207917 121.21664163 -10.72244395 137.37821441 -22.625 141.8125 C-26.33350203 141.56526653 -28.8086678 140.2538322 -31.4375 137.625 C-32.36503623 131.01630435 -32.36503623 131.01630435 -30.2265625 127.80859375 C-29.04282349 126.52204173 -27.8416275 125.25145765 -26.62890625 123.9921875 C-7.20122163 103.00613246 1.70417654 74.94443321 0.66748047 46.67675781 C0.1933009 37.40930411 -1.81162359 29.01788932 -4.67041016 20.25830078 C-8.62191734 8.04318541 -8.62191734 8.04318541 -5.9375 2.5625 C-3.4375 0.625 -3.4375 0.625 0 0 Z " fill="#000000" transform="translate(487.4375,173.375)"/>
<path d="M0 0 C2.9375 1.875 2.9375 1.875 5 5 C5.33998738 8.42068933 4.63157557 11.63985288 4 15 C-1.72350498 45.59194205 1.28325305 74.53949808 19 101 C22.34098669 105.43226376 25.8110941 109.74491787 29.6796875 113.73046875 C32.29169575 116.48266953 33.33101406 118.45629054 33.5 122.1875 C33 126 33 126 31.9375 127.9375 C28.70198984 129.71181202 26.73152229 130.12234499 23 130 C19.89339228 128.08964987 17.50096152 125.63520797 15 123 C14.42378906 122.41992188 13.84757812 121.83984375 13.25390625 121.2421875 C-8.28540454 98.26029007 -16.79230549 66.32621325 -16.2578125 35.56640625 C-15.90039396 25.14169883 -15.30362171 9.03515573 -8.1875 0.9375 C-5.14948579 -0.36450609 -3.27613904 -0.53487984 0 0 Z " fill="#000000" transform="translate(23,185)"/>
<path d="M0 0 C1.9375 1.0625 1.9375 1.0625 3 3 C3.94426095 6.24841909 4.64631591 8.73411113 3.05004883 11.8605957 C1.58812076 13.85693592 0.04166827 15.7411294 -1.5625 17.625 C-13.90156831 33.08332458 -18.39033752 49.36444827 -17 69 C-16.60628546 71.72571605 -16.09471054 74.34988228 -15.4609375 77.02734375 C-14.45268176 81.34233655 -14.43904326 83.9678396 -16.5625 87.875 C-19 90 -19 90 -22.4375 90.625 C-26.91889612 89.83879015 -28.09865245 88.43705387 -31 85 C-37.72381552 68.68384699 -35.52295627 46.04939296 -29.18652344 29.93066406 C-23.95626231 17.59929535 -15.22511268 -1.45001073 0 0 Z " fill="#000000" transform="translate(80,166)"/>
<path d="M0 0 C12.67233465 7.65620219 20.99268214 26.27809122 24.5 40.25 C25.95500722 46.72994603 26.39906882 53.18228262 26.5 59.8125 C26.52803711 61.09398926 26.52803711 61.09398926 26.55664062 62.40136719 C26.51657531 66.23685038 26.45908989 68.34458877 24.21875 71.54296875 C21.88813898 73.07345803 20.75591403 73.54306116 18 73.5 C17.34 73.5103125 16.68 73.520625 16 73.53125 C12.93886762 72.71813671 11.84380652 71.57566832 10 69 C9.64598189 66.12950316 9.49698538 63.55591094 9.5 60.6875 C8.97336614 42.94137187 3.0034925 27.85593337 -8.88720703 14.57568359 C-11.43396276 11.55465708 -12.0102874 10.25401954 -11.84765625 6.23828125 C-11 3 -11 3 -9.9375 1.0625 C-6.68984388 -0.71847271 -3.53863623 -0.68336952 0 0 Z " fill="#000000" transform="translate(440,166)"/>
<path d="M0 0 C2.61234096 2.19099564 2.95512553 3.81302305 3.75 7.125 C2.75295243 12.27641245 0.25838888 14.39857608 -3.33984375 18.09375 C-6.86941359 21.94984393 -9.77537888 26.13492006 -12.72412109 30.44165039 C-15.80892108 34.90446054 -15.80892108 34.90446054 -18 36 C-21.79877599 36.35173852 -24.14360153 36.52701444 -27.4375 34.5 C-29.591582 31.05346881 -29.61227075 27.91835283 -29 24 C-27.8371638 21.40531065 -26.25538054 19.28830983 -24.5 17.0625 C-24.04802246 16.46276367 -23.59604492 15.86302734 -23.13037109 15.24511719 C-9.62810012 -2.45078912 -9.62810012 -2.45078912 0 0 Z " fill="#000000" transform="translate(53,139)"/>
<path d="M0 0 C2.57945972 1.68999085 2.9435005 2.78194247 3.72265625 5.7890625 C4.46692521 14.40581016 -3.77775527 22.5597503 -8.94921875 28.78515625 C-11.69449327 31.75005273 -13.33004832 32.91315441 -17.375 33.4375 C-21 33 -21 33 -24 30.9375 C-26 28 -26 28 -25.88671875 24.65234375 C-24.89260116 20.55763034 -23.60258118 18.73755287 -20.8125 15.625 C-17.24642558 11.5211842 -14.1893456 7.43155591 -11.38671875 2.77734375 C-8.14546207 -1.37694298 -4.85433772 -1.34268916 0 0 Z " fill="#000000" transform="translate(454,254)"/>
<path d="M0 0 C4.05563726 1.30359769 5.85196419 2.98001377 8.5 6.125 C10.06179401 7.83397879 11.62435449 9.5422573 13.1875 11.25 C20.00865522 18.79339518 20.00865522 18.79339518 19.80859375 25.18359375 C19.5 27.125 19.5 27.125 17.9375 29.625 C14.50863886 31.73506839 12.45779649 31.74991523 8.5 31.125 C6.1015625 28.94140625 6.1015625 28.94140625 3.5 26.125 C2.64019531 25.20460937 1.78039062 24.28421875 0.89453125 23.3359375 C0.04246094 22.40007812 -0.80960937 21.46421875 -1.6875 20.5 C-2.54730469 19.55898437 -3.40710938 18.61796875 -4.29296875 17.6484375 C-6.98418039 14.57140614 -8.40558968 12.85330817 -8.9375 8.75 C-8.5 5.125 -8.5 5.125 -6.4375 2.125 C-3.5 0.125 -3.5 0.125 0 0 Z " fill="#000000" transform="translate(464.5,137.875)"/>
<path d="M0 0 C2.3369359 2.0709432 4.10816377 4.52674838 6 7 C6.69996094 7.80566406 7.39992188 8.61132812 8.12109375 9.44140625 C14.39604939 16.76778048 14.39604939 16.76778048 15.3125 20.8125 C15 24 15 24 13 26.9375 C9.24750505 29.51734028 7.46801531 29.79785988 3 29 C0.5 27 0.5 27 -2 24 C-2.58007812 23.360625 -3.16015625 22.72125 -3.7578125 22.0625 C-11.76675804 13.21579865 -11.76675804 13.21579865 -12.375 7.4375 C-11.98357529 3.84944015 -11.56692217 2.47185098 -9 0 C-5.30114425 -1.23295192 -3.7266779 -1.16915385 0 0 Z " fill="#000000" transform="translate(69,258)"/>
</svg>
